<svg width="24" height="24" viewBox="0 0 24 24" fill="none" xmlns="http://www.w3.org/2000/svg">
<path d="M12 12.708L6.754 17.954C6.66067 18.0473 6.546 18.0973 6.41 18.104C6.274 18.1107 6.15267 18.0607 6.046 17.954C5.93933 17.8473 5.886 17.7293 5.886 17.6C5.886 17.4707 5.93933 17.3527 6.046 17.246L11.292 12L6.046 6.754C5.95267 6.66067 5.90267 6.546 5.896 6.41C5.88933 6.274 5.93933 6.15267 6.046 6.046C6.15267 5.93933 6.27067 5.886 6.4 5.886C6.52933 5.886 6.64733 5.93933 6.754 6.046L12 11.292L17.246 6.046C17.3393 5.95267 17.4543 5.90267 17.591 5.896C17.7263 5.88933 17.8473 5.93933 17.954 6.046C18.0607 6.15267 18.114 6.27067 18.114 6.4C18.114 6.52933 18.0607 6.64733 17.954 6.754L12.708 12L17.954 17.246C18.0473 17.3393 18.0973 17.4543 18.104 17.591C18.1107 17.7263 18.0607 17.8473 17.954 17.954C17.8473 18.0607 17.7293 18.114 17.6 18.114C17.4707 18.114 17.3527 18.0607 17.246 17.954L12 12.708Z" fill="#263871"/>
</svg>
