<svg width="23" height="16" viewBox="0 0 23 16" fill="none" xmlns="http://www.w3.org/2000/svg">
<path d="M17.6562 4.45455H4.71875C4.31625 4.45455 4 4.13455 4 3.72727C4 3.32 4.31625 3 4.71875 3H17.6562C18.0588 3 18.375 3.32 18.375 3.72727C18.375 4.13455 18.0588 4.45455 17.6562 4.45455ZM17.6562 8.81818H4.71875C4.31625 8.81818 4 8.49818 4 8.09091C4 7.68364 4.31625 7.36364 4.71875 7.36364H17.6562C18.0588 7.36364 18.375 7.68364 18.375 8.09091C18.375 8.49818 18.0588 8.81818 17.6562 8.81818ZM17.6562 13.1818H4.71875C4.31625 13.1818 4 12.8618 4 12.4545C4 12.0473 4.31625 11.7273 4.71875 11.7273H17.6562C18.0588 11.7273 18.375 12.0473 18.375 12.4545C18.375 12.8618 18.0588 13.1818 17.6562 13.1818Z" fill="#263871" fill-opacity="0.866667"/>
</svg>
